<?xml version="1.0" standalone="no"?>
<!DOCTYPE svg PUBLIC "-//W3C//DTD SVG 20010904//EN"
 "http://www.w3.org/TR/2001/REC-SVG-20010904/DTD/svg10.dtd">
<svg version="1.0" xmlns="http://www.w3.org/2000/svg"
 width="700.000000pt" height="700.000000pt" viewBox="0 0 700.000000 700.000000"
 preserveAspectRatio="xMidYMid meet">
<metadata>
Created by potrace 1.14, written by Peter Selinger 2001-2017
</metadata>
<g transform="translate(0.000000,700.000000) scale(0.100000,-0.100000)"
fill="#000000" stroke="none">
<path d="M6561 6824 c-158 -57 -457 -312 -995 -850 -269 -269 -665 -677 -881
-909 -20 -22 -87 -93 -149 -159 -61 -65 -122 -130 -135 -145 -13 -14 -56 -60
-95 -102 -85 -90 -117 -124 -350 -379 -99 -107 -202 -220 -230 -250 -28 -30
-92 -100 -141 -155 -50 -55 -99 -109 -110 -121 -11 -11 -58 -63 -105 -115 -47
-51 -96 -105 -110 -120 -14 -15 -37 -40 -51 -57 -63 -70 -137 -153 -209 -232
-42 -47 -103 -114 -135 -150 -32 -36 -72 -81 -90 -100 -86 -96 -144 -162 -204
-229 -36 -41 -77 -86 -91 -101 -14 -14 -74 -82 -135 -151 -60 -68 -114 -129
-120 -135 -5 -6 -41 -46 -80 -89 -38 -43 -75 -83 -80 -89 -6 -6 -61 -69 -124
-141 -63 -71 -122 -137 -130 -146 -9 -9 -29 -31 -45 -50 -53 -61 -108 -121
-105 -113 3 5 30 61 60 124 56 113 155 318 309 635 43 88 126 259 185 380 59
121 129 265 155 320 26 55 96 199 155 320 147 300 273 559 365 750 201 414
358 739 510 1050 222 455 232 477 232 521 0 65 -31 113 -90 141 -42 20 -87 19
-143 -4 -74 -29 -428 -211 -584 -300 -22 -12 -62 -34 -90 -49 -110 -59 -461
-273 -636 -390 -824 -547 -1354 -1086 -1582 -1608 -101 -229 -234 -672 -273
-901 -2 -16 -9 -55 -14 -85 -44 -265 -55 -409 -55 -725 0 -302 8 -411 46 -650
54 -342 88 -467 258 -948 32 -89 68 -133 126 -148 37 -11 440 -7 535 5 19 3
67 7 105 11 166 14 410 52 621 96 741 153 1456 463 2014 872 58 43 237 184
256 202 6 5 56 49 110 97 123 109 266 253 374 378 45 52 93 107 106 122 49 57
204 267 267 363 37 55 70 105 74 110 8 9 178 290 222 365 128 220 231 445 247
540 24 149 -28 259 -144 298 -33 11 -169 9 -209 -3 -20 -7 -22 -5 -14 21 53
183 352 719 772 1382 46 73 91 144 99 157 44 69 156 244 281 435 77 118 191
301 253 405 274 457 327 629 229 746 -53 62 -146 84 -232 53z m-227 -566 c-25
-43 -120 -199 -139 -228 -141 -222 -167 -264 -368 -572 -222 -342 -687 -1102
-687 -1123 0 -2 -14 -28 -31 -57 -18 -29 -69 -127 -114 -218 -203 -405 -229
-590 -100 -709 54 -50 106 -65 208 -59 42 3 77 2 77 -1 -1 -21 -141 -283 -228
-426 -30 -49 -62 -103 -72 -120 -86 -149 -304 -464 -405 -584 -242 -290 -561
-590 -795 -751 -19 -13 -37 -27 -40 -30 -7 -9 -224 -150 -295 -192 -400 -239
-825 -413 -1310 -538 -104 -27 -203 -51 -220 -54 -80 -16 -305 -55 -340 -61
-40 -6 -50 -7 -155 -20 -30 -3 -66 -8 -80 -10 -63 -9 -180 -16 -180 -11 0 15
81 163 102 187 37 42 126 144 258 294 67 77 150 171 184 209 33 39 77 88 96
110 19 23 40 46 46 51 5 6 41 46 80 90 38 44 71 82 74 85 3 3 39 43 80 90 41
47 80 90 85 96 21 23 138 154 155 174 30 35 144 163 160 180 8 9 46 52 85 96
38 43 74 84 80 90 34 38 91 102 254 284 101 113 200 223 220 245 20 22 92 103
161 180 69 77 136 152 150 166 25 27 162 177 191 211 9 10 52 57 95 105 44 47
87 95 97 107 10 12 33 37 51 56 17 19 61 67 96 105 35 39 107 117 160 175 53
58 119 129 146 159 27 29 63 68 79 85 17 18 73 79 125 136 131 142 139 151
255 275 57 61 117 126 135 145 18 19 89 95 159 168 69 74 143 153 165 175 298
320 942 967 1165 1170 83 77 99 88 85 65z m-3267 -899 c-30 -63 -105 -217
-167 -344 -62 -126 -136 -279 -165 -340 -29 -60 -103 -213 -165 -340 -123
-252 -241 -495 -517 -1065 -45 -91 -124 -255 -178 -365 -54 -110 -130 -267
-170 -350 -40 -82 -116 -240 -170 -350 -54 -110 -131 -270 -172 -355 -159
-329 -225 -463 -335 -690 -63 -129 -123 -253 -133 -275 -17 -37 -51 -84 -105
-145 -12 -14 -38 -44 -58 -68 l-36 -43 -24 68 c-48 140 -107 381 -137 555 -21
123 -23 132 -30 208 -4 36 -9 73 -10 82 -5 26 -18 304 -18 388 0 85 12 320 18
365 2 17 9 75 15 130 6 55 15 118 20 140 5 22 11 56 14 75 25 165 147 608 196
715 5 11 25 61 45 110 39 97 95 208 108 213 4 2 7 8 7 14 0 14 121 188 194
278 74 92 351 371 466 470 47 40 96 82 110 94 162 139 540 405 832 585 264
163 366 223 528 309 36 19 69 39 74 43 22 20 14 -5 -37 -112z"/>
</g>
</svg>
